<svg xmlns="http://www.w3.org/2000/svg" viewBox="0 0 1200 440" role="img"><title>Unwrapped expansion chamber section; all dimensions in millimetres</title><style>text{font-family:Arial,sans-serif;fill:#334155;font-size:16px}.small{font-size:13px}.dim{stroke:#64748b;stroke-width:1;fill:none}.pipe{stroke:#475569;fill:none;stroke-width:2}.water{fill:#38bdf8;fill-opacity:.20;stroke:#0284c7;stroke-width:1}</style><text x="60" y="28" style="font-size:22px">Dry comparison · unwrapped centreline</text><text x="60" y="52">Illustrative geometry / not a fabrication drawing</text><path d="M60.000,194.800 L295.200,194.800 L655.577,220.000 L676.305,220.000 L903.428,188.080 L1145.348,188.080" class="pipe"/><path d="M60.000,195.920 L295.200,195.920 L655.577,221.120 L676.305,221.120 L903.428,189.200 L1145.348,189.200" class="pipe" stroke-opacity=".5"/><path d="M60.000,161.200 L295.200,161.200 L655.577,136.000 L676.305,136.000 L903.428,167.920 L1145.348,167.920" class="pipe"/><path d="M60.000,160.080 L295.200,160.080 L655.577,134.880 L676.305,134.880 L903.428,166.800 L1145.348,166.800" class="pipe" stroke-opacity=".5"/><line x1="45" y1="178" x2="1160.3479674359187" y2="178" class="dim" stroke-dasharray="8 5"/><path d="M60.0 93 v12 M60.0 99 H789.8666666666667 M789.8666666666667 93 v12" class="dim"/><text x="424.93333333333334" y="89" text-anchor="middle">Effective tuned length 651.67</text><path d="M789.8666666666667 105 V215" class="dim" stroke-dasharray="4 4"/><path d="M60.0 269 v12 M60.0 275 H295.20000000000005 M295.20000000000005 269 v12" class="dim"/><text x="177.60000000000002" y="265" text-anchor="middle">210.00</text><text class="small" x="177.60000000000002" y="301" text-anchor="middle">Header + engine duct</text><path d="M295.20000000000005 269 v12 M295.20000000000005 275 H655.5767896691406 M655.5767896691406 269 v12" class="dim"/><text x="475.3883948345703" y="265" text-anchor="middle">321.76</text><text class="small" x="475.3883948345703" y="301" text-anchor="middle">Diffuser</text><path d="M655.5767896691406 269 v12 M655.5767896691406 275 H676.3053658974147 M676.3053658974147 269 v12" class="dim"/><text x="665.9410777832776" y="265" text-anchor="middle">18.51</text><text class="small" x="665.9410777832776" y="301" text-anchor="middle">Belly</text><path d="M676.3053658974147 269 v12 M676.3053658974147 275 H903.4279674359187 M903.4279674359187 269 v12" class="dim"/><text x="789.8666666666667" y="265" text-anchor="middle">202.79</text><text class="small" x="789.8666666666667" y="301" text-anchor="middle">Baffle</text><path d="M903.4279674359187 269 v12 M903.4279674359187 275 H1145.3479674359187 M1145.3479674359187 269 v12" class="dim"/><text x="1024.3879674359187" y="265" text-anchor="middle">216.00</text><text class="small" x="1024.3879674359187" y="301" text-anchor="middle">Stinger</text><path d="M60.0 354 v12 M60.0 360 H1145.3479674359187 M1145.3479674359187 354 v12" class="dim"/><text x="602.6739837179593" y="350" text-anchor="middle">Overall unwrapped gas path 969.06</text><text x="149.60000000000002" y="225">ID 30</text><text x="655.5767896691406" y="120">ID 75</text><text x="959.4279674359187" y="220">ID 18</text><text x="362.40000000000003" y="235">8° included</text><text x="698.7053658974147" y="235">16° included</text><text x="60" y="425" class="small">Datum: exhaust port window. Engine passage must be deducted from the external header. Walls shown as radial offsets.</text></svg>